<?xml version="1.0" ?><svg id="Layer_1" style="enable-background:new 0 0 512 512;" version="1.1" viewBox="0 0 512 512" xml:space="preserve" xmlns="http://www.w3.org/2000/svg" xmlns:xlink="http://www.w3.org/1999/xlink"><g id="XMLID_448_"><circle cx="67.8" cy="408.8" id="XMLID_457_" r="25"/><path d="M505.4,93.6c-2.6-10.8-13.4-17.5-24.2-14.9l-84.5,20.1c-6.1,1.5-11.2,5.7-13.8,11.5L324.6,363H26.1   C15,363,6,372,6,383.1s9,20.1,20.1,20.1h7.7c2.7-16.3,16.9-28.9,34-28.9c17.1,0,31.3,12.5,34,28.9h130.5   c2.7-16.3,16.9-28.9,34-28.9c17.1,0,31.3,12.5,34,28.9h37.7c8,0,15.2-4.7,18.4-12.1l59.7-255.5l74.7-17.8   C501.3,115.3,508,104.4,505.4,93.6z" id="XMLID_456_"/><circle cx="266.2" cy="408.8" id="XMLID_455_" r="25"/><g id="XMLID_449_"><path d="M259.5,177h-52.3v-6.4c0-8.8-7.2-16-16-16h-41c-8.8,0-16,7.2-16,16v6.4H81.9c-12.7,0-23,10.3-23,23v34.5    h88.4v-0.9c0-7.7,6.3-14,14-14h18.8c7.7,0,14,6.3,14,14v0.9h88.4V200C282.5,187.3,272.2,177,259.5,177z M144.9,170.6    c0-2.9,2.4-5.3,5.3-5.3h41c2.9,0,5.3,2.4,5.3,5.3v6.4h-51.6V170.6z" id="XMLID_452_"/><path d="M194.1,252.4c0,7.7-6.3,14-14,14h-18.8c-7.7,0-14-6.3-14-14v-7.3H58.9v80.3c0,12.7,10.3,23,23,23h177.6    c12.7,0,23-10.3,23-23v-80.3h-88.4V252.4z" id="XMLID_451_"/><path d="M180.1,259c3.6,0,6.6-2.9,6.6-6.6v-18.8c0-3.6-2.9-6.6-6.6-6.6h-18.8c-3.6,0-6.6,2.9-6.6,6.6v18.8    c0,3.6,2.9,6.6,6.6,6.6H180.1z" id="XMLID_450_"/></g></g></svg>